<svg xmlns="http://www.w3.org/2000/svg" xmlns:xlink="http://www.w3.org/1999/xlink" version="1.1" x="0px" y="0px" viewBox="0 0 100 125" style="enable-background:new 0 0 100 100;" xml:space="preserve" width="32" height="32" fill="white"><g><path d="M91.3,27.7l-8-18.6c-0.3-0.7-1-1.2-1.8-1.2h-63c-0.8,0-1.5,0.5-1.8,1.2l-8,18.6c-0.1,0.3-0.1,0.5-0.1,0.8h0v10.2   c0,3.8,2.2,7.1,5.4,8.8v42.6c0,1.1,0.9,2,2,2h10.6h18.2h39.4c1.1,0,2-0.9,2-2V47.5c3.2-1.6,5.4-5,5.4-8.8V28.5h0   C91.5,28.3,91.4,28,91.3,27.7z M86.4,26.5H74.3l-1.7-14.6h7.6L86.4,26.5z M59.9,30.5h10.8l1,8.3c0,3.2-2.7,5.8-5.9,5.8   c-3.3,0-5.9-2.6-5.9-5.9V30.5z M40.3,26.5H29.4l1.3-14.6h10.9L40.3,26.5z M45.6,11.9h8.9l1.1,14.6H44.3L45.6,11.9z M29,30.5h11.1   v8.2c0,3.3-2.6,5.9-5.9,5.9c-3.2,0-5.9-2.6-5.9-5.8L29,30.5z M44.1,30.5h11.7l0.1,8.2c0,3.3-2.6,5.9-5.9,5.9   c-3.3,0-5.9-2.6-5.9-5.9V30.5z M59.7,26.5l-1.1-14.6h10l1.7,14.6H59.7z M19.8,11.9h6.8l-1.3,14.6H13.6L19.8,11.9z M12.5,30.5H25   l-0.7,8c0,0.1,0,0.1,0,0.2c0,3.3-2.6,5.9-5.9,5.9s-5.9-2.6-5.9-5.9V30.5z M28.5,88.1V60.2h14.2v27.9H28.5z M82.1,88.1H46.7V58.2   c0-1.1-0.9-2-2-2H26.5c-1.1,0-2,0.9-2,2v29.9h-6.6V48.6c0.2,0,0.4,0,0.5,0c3.2,0,6.1-1.6,7.9-4c1.8,2.4,4.7,4,7.9,4   c3.2,0,6.1-1.6,7.9-4c1.8,2.4,4.7,4,7.9,4c3.2,0,6.1-1.6,7.9-4c1.8,2.4,4.7,4,7.9,4c3.2,0,6.1-1.6,7.9-4c1.8,2.4,4.7,4,7.9,4   c0.2,0,0.4,0,0.5,0V88.1z M81.6,44.6c-3.3,0-5.9-2.6-5.9-5.9c0-0.1,0-0.2,0-0.2l-0.9-8h12.7v8.2C87.5,42,84.8,44.6,81.6,44.6z"/><path d="M76.2,56.2H52.6c-1.1,0-2,0.9-2,2v20.6c0,1.1,0.9,2,2,2h23.6c1.1,0,2-0.9,2-2V58.2C78.2,57.1,77.4,56.2,76.2,56.2z    M74.2,76.8H54.6V60.2h19.6V76.8z"/></g><text x="0" y="115" fill="#000000" font-size="5px" font-weight="bold" font-family="'Helvetica Neue', Helvetica, Arial-Unicode, Arial, Sans-serif"></text><text x="0" y="120" fill="#ffffff" font-size="5px" font-weight="bold" font-family="'Helvetica Neue', Helvetica, Arial-Unicode, Arial, Sans-serif"></text></svg>
