<svg width="1977" height="1280" version="1.1" xmlns="http://www.w3.org/2000/svg" desc="Created with imagetracer.js version 1.2.6" ><path fill="rgb(0,0,0)" stroke="rgb(0,0,0)" stroke-width="1" opacity="0" d="M 0 0 L 1977 0 L 1977 1280 L 0 1280 L 0 0 Z M 692 205 Q 689 210 686 209 L 687 211 L 686 211 L 685 214 L 686 216 L 685 215 L 684 247 L 686 247 L 685 250 L 685 252 Q 684 254 687 253 Q 685 255 688 257 L 687 258 L 690 259 L 689 261 L 691 260 Q 694 259 693 262 L 696 262 Q 697 265 699 263 L 705 266 Q 710 267 712 264 L 717 265 L 743 264 L 744 263 Q 750 261 749 265 L 858 265 L 859 264 L 880 264 L 881 263 L 885 264 L 890 263 L 895 264 Q 899 265 901 262 L 901 264 L 911 262 L 912 263 L 911 263 L 911 264 L 920 264 L 920 262 L 926 263 L 929 262 Q 933 261 935 263 L 949 262 L 950 261 L 952 262 L 956 261 L 961 262 L 966 261 L 975 261 L 976 262 L 1000 262 L 1001 261 L 1010 261 L 1011 262 Q 1015 263 1017 261 L 1022 262 L 1025 261 L 1033 263 L 1038 262 L 1042 263 L 1045 262 Q 1050 261 1049 264 L 1055 264 L 1055 262 L 1061 264 Q 1063 260 1065 264 L 1067 263 Q 1072 262 1074 265 L 1084 265 L 1081 264 Q 1082 261 1084 263 L 1084 262 L 1086 262 L 1088 259 Q 1090 260 1089 258 Q 1090 254 1094 255 Q 1095 252 1092 253 L 1093 251 L 1095 252 L 1095 250 Q 1092 251 1093 249 L 1095 249 L 1094 247 L 1096 247 L 1096 244 L 1094 244 L 1097 238 L 1097 222 L 1095 221 L 1095 216 Q 1098 216 1097 212 L 1093 209 Q 1090 210 1091 207 L 1090 207 L 1086 205 L 1084 206 L 1079 205 L 1076 206 L 1068 206 L 1067 205 L 1058 205 L 1057 206 L 730 206 L 729 205 L 718 205 L 717 206 Q 711 208 710 205 Q 705 204 704 206 Q 699 207 698 205 L 695 206 L 692 205 Z M 1091 257 L 1092 259 Q 1093 256 1091 257 Z M 1088 261 L 1086 264 L 1088 263 L 1088 261 Z M 693 263 L 694 265 L 695 265 L 693 263 Z M 697 264 L 696 266 L 703 266 L 701 265 L 699 265 L 697 264 Z M 692 276 L 692 278 L 690 277 L 688 278 L 688 280 L 685 281 L 687 282 L 685 282 L 686 285 L 685 285 L 684 288 L 685 290 L 685 292 L 684 289 L 683 294 L 685 293 L 685 295 L 685 297 L 683 301 L 684 306 L 683 309 L 683 311 Q 684 313 681 312 L 682 315 L 677 326 Q 678 333 675 336 L 676 338 L 674 345 L 675 348 Q 676 350 673 349 L 674 352 L 673 354 L 674 357 L 674 359 L 673 361 L 673 363 L 671 367 L 673 367 L 671 371 L 671 373 Q 672 375 670 374 L 670 376 Q 666 378 667 385 L 665 387 L 666 390 L 664 390 L 665 394 L 665 396 L 663 396 L 664 400 L 663 403 L 663 405 L 664 409 L 664 411 Q 662 416 663 425 L 662 426 L 662 437 L 663 438 L 662 447 L 664 448 L 663 450 L 663 454 L 665 455 L 663 456 L 664 458 L 666 457 L 671 462 L 672 461 L 683 463 L 685 470 L 685 572 L 684 573 L 684 583 L 685 584 L 684 586 L 685 589 L 685 599 L 684 589 L 683 589 L 683 600 L 685 602 L 684 604 L 686 604 L 685 606 L 688 607 L 690 610 L 692 609 L 693 612 L 694 610 L 696 611 L 696 613 Q 700 614 699 611 L 703 612 L 706 612 L 705 611 L 705 610 L 711 611 L 714 610 L 716 611 L 720 609 L 720 611 L 723 609 L 725 610 L 727 609 L 728 610 L 727 610 L 727 611 Q 731 612 730 609 L 734 610 Q 741 607 754 609 L 756 609 L 759 608 L 762 609 L 766 608 Q 770 607 772 609 L 776 608 L 792 608 L 793 609 L 806 609 L 807 608 L 820 608 L 821 609 Q 827 611 829 608 Q 833 607 835 609 L 839 608 L 843 609 L 845 608 L 848 609 L 869 609 L 870 610 L 883 609 L 883 611 L 888 611 L 887 610 L 887 609 L 889 610 L 893 609 Q 895 608 894 611 L 897 611 L 896 610 L 896 609 L 901 611 L 904 610 L 906 610 L 913 611 Q 914 609 916 612 L 920 611 Q 922 610 921 613 L 926 613 L 925 612 L 925 611 Q 928 610 927 613 L 931 611 L 930 613 L 933 613 L 934 614 L 933 612 L 938 609 L 937 611 Q 939 614 940 611 L 939 608 L 942 608 L 939 607 L 941 604 L 942 591 L 943 590 Q 944 585 942 584 L 943 569 L 941 569 L 942 567 L 942 554 L 941 553 L 941 525 L 943 524 L 943 491 L 941 490 L 942 486 L 941 481 L 943 481 L 942 477 L 943 474 L 942 472 L 942 470 L 944 469 L 943 466 L 945 462 L 948 461 L 1033 461 L 1035 462 L 1038 472 L 1038 582 L 1037 583 L 1037 592 L 1038 593 Q 1039 597 1037 599 Q 1036 603 1039 602 L 1040 606 L 1038 607 L 1042 608 L 1043 612 L 1045 613 L 1047 612 Q 1046 614 1049 613 L 1049 611 L 1051 612 L 1052 615 L 1056 615 L 1053 614 L 1057 612 L 1057 614 L 1060 613 L 1063 614 L 1061 614 L 1061 615 L 1069 615 L 1067 614 L 1078 613 L 1077 615 L 1080 615 L 1081 612 L 1082 615 Q 1084 616 1083 613 Q 1084 610 1088 611 L 1089 608 L 1091 608 L 1094 603 Q 1093 600 1096 601 L 1094 599 L 1095 596 L 1097 596 L 1095 595 L 1097 594 L 1096 593 L 1097 589 L 1097 592 L 1098 592 Q 1100 584 1096 583 L 1097 578 L 1097 574 L 1096 576 L 1095 574 L 1095 572 Q 1094 568 1097 569 L 1095 558 Q 1094 555 1097 556 L 1097 513 L 1095 512 Q 1094 505 1097 501 L 1097 497 L 1095 493 L 1095 491 L 1097 491 L 1096 489 Q 1095 485 1098 486 L 1097 479 L 1097 473 L 1099 473 L 1099 472 L 1098 469 L 1100 468 L 1099 465 L 1102 466 L 1105 463 L 1105 465 Q 1107 466 1106 464 L 1108 464 L 1110 462 L 1115 461 L 1114 460 L 1116 460 L 1115 458 L 1117 457 L 1116 456 L 1118 453 L 1117 451 Q 1116 448 1119 449 L 1119 446 L 1118 448 L 1117 448 L 1119 444 L 1118 440 L 1118 432 L 1119 431 L 1119 413 L 1118 412 L 1119 407 L 1117 399 L 1118 396 L 1116 394 L 1117 390 L 1115 390 L 1117 389 L 1114 386 L 1115 384 L 1113 384 L 1114 382 Q 1113 379 1112 381 L 1111 379 L 1112 374 L 1109 373 L 1111 370 L 1110 370 L 1109 368 L 1110 366 Q 1111 363 1109 364 L 1109 363 L 1108 361 L 1109 358 L 1108 357 L 1108 356 L 1107 354 L 1109 354 Q 1110 350 1108 351 L 1108 350 L 1108 346 L 1107 348 L 1106 348 L 1107 344 L 1107 342 L 1104 340 L 1105 338 L 1105 336 L 1104 335 L 1104 334 L 1103 330 L 1100 329 L 1101 325 L 1100 325 L 1099 323 L 1101 323 L 1101 320 L 1099 320 L 1100 318 L 1098 314 L 1099 312 L 1098 309 L 1099 307 Q 1100 303 1097 304 L 1098 302 L 1097 299 Q 1096 295 1099 296 L 1098 291 Q 1099 288 1096 289 L 1096 287 Q 1099 288 1098 286 L 1097 286 L 1095 284 L 1096 281 L 1094 280 L 1094 282 L 1093 281 Q 1095 279 1093 278 L 1092 280 L 1091 278 L 1090 280 L 1088 279 L 1088 277 L 1080 277 L 1080 279 L 1078 278 L 1076 279 L 1074 278 L 1072 279 L 1069 278 L 1067 279 L 1063 278 L 1058 279 L 941 279 L 940 278 L 847 278 L 846 279 L 731 279 L 730 278 L 721 278 L 720 279 L 717 278 L 715 279 L 713 278 L 711 279 L 709 279 Q 706 280 707 277 L 702 278 L 700 277 L 698 278 L 698 277 L 692 276 Z M 1096 598 L 1097 600 Q 1098 597 1096 598 Z M 1093 607 L 1090 611 L 1093 609 L 1093 607 Z M 1041 609 L 1042 611 Q 1043 608 1041 609 Z M 736 795 L 736 797 L 735 796 L 732 797 L 732 799 L 727 802 L 729 803 L 728 803 L 728 805 L 726 808 L 727 810 L 725 810 L 725 831 L 726 832 L 726 956 L 727 957 L 727 1001 L 726 1002 L 726 1028 L 725 1029 Q 724 1035 727 1039 L 726 1044 L 727 1047 L 726 1046 L 725 1049 L 727 1049 L 726 1051 Q 725 1053 729 1052 L 728 1054 Q 730 1058 732 1055 L 732 1057 L 734 1056 L 734 1058 L 737 1057 L 737 1059 L 740 1059 L 738 1058 L 740 1057 L 742 1057 L 746 1058 L 748 1057 L 751 1058 L 748 1058 L 748 1059 Q 753 1061 752 1058 L 755 1057 L 757 1058 L 757 1057 L 759 1057 L 761 1053 L 763 1053 L 762 1051 L 764 1050 L 763 1047 L 765 1044 L 765 1030 L 764 1033 L 763 1033 L 764 1029 L 764 989 L 763 988 Q 762 983 764 982 L 764 950 L 763 949 L 764 946 L 763 938 L 765 938 L 765 935 L 764 935 L 765 933 L 764 931 L 765 927 L 765 925 L 767 924 L 767 922 L 772 916 Q 774 917 773 914 L 775 914 L 775 912 L 777 912 L 777 910 L 794 901 L 798 901 L 800 901 L 803 900 L 814 900 Q 823 902 828 908 Q 830 907 829 910 L 831 910 L 839 922 Q 838 926 841 928 L 841 1004 L 840 1005 L 840 1035 L 839 1036 L 839 1047 L 841 1047 L 840 1052 L 843 1054 L 842 1054 L 843 1056 Q 845 1055 844 1058 L 846 1057 L 851 1061 L 853 1060 L 855 1061 Q 857 1060 856 1063 Q 861 1065 860 1061 L 865 1060 L 866 1063 Q 872 1065 870 1060 L 873 1059 Q 875 1058 874 1061 L 875 1061 Q 874 1058 877 1059 L 877 1058 Q 874 1059 875 1057 L 880 1053 L 879 1051 L 881 1051 L 881 1049 L 880 1049 L 879 1047 L 881 1046 L 881 1041 L 880 1044 L 879 1044 L 881 1033 Q 882 1020 879 1013 Q 877 1006 880 1005 L 879 1001 L 880 991 L 881 1001 L 881 949 L 879 949 L 879 940 L 880 939 L 880 934 L 878 928 Q 880 926 877 925 L 879 922 L 878 922 L 878 921 L 876 918 L 877 916 Q 874 917 875 913 L 875 909 L 874 908 L 872 904 L 870 904 L 872 903 Q 871 896 866 893 L 867 890 L 864 890 L 866 889 Q 865 886 864 888 Q 861 888 861 884 Q 860 881 857 882 L 857 880 Q 851 882 853 877 L 851 876 L 849 877 L 848 874 L 847 876 L 844 873 L 842 874 L 834 871 L 832 872 L 830 871 L 827 872 L 825 872 L 827 871 L 810 870 L 810 872 L 808 871 L 805 872 L 803 871 L 797 873 L 795 872 L 791 874 L 788 873 L 787 875 L 786 874 Q 782 873 783 876 L 777 880 L 773 881 L 775 881 L 775 882 L 770 881 L 770 883 L 768 882 L 766 879 L 767 877 L 765 877 L 766 875 L 764 866 L 765 864 L 764 861 L 765 858 Q 766 853 764 852 L 764 834 L 765 833 L 764 828 L 765 826 L 764 823 Q 767 819 765 811 L 765 809 L 764 808 L 763 806 Q 764 802 762 803 L 762 802 Q 764 803 763 801 Q 762 798 761 800 L 760 797 L 759 799 L 758 799 Q 759 796 757 797 L 755 797 L 754 795 Q 750 793 751 797 L 749 797 L 747 797 L 749 796 L 749 795 L 741 795 L 740 797 L 738 797 L 738 796 L 736 795 Z M 601 807 L 599 808 L 597 808 L 594 809 L 590 809 L 587 808 Q 583 807 584 810 L 583 809 L 581 810 L 578 809 L 578 811 L 574 810 L 574 812 L 573 811 L 571 812 Q 568 811 569 814 L 564 815 L 564 817 L 556 820 L 556 822 Q 555 824 554 822 L 550 827 Q 551 830 547 828 L 547 830 Q 544 829 545 832 L 543 833 L 541 837 Q 540 839 539 837 L 531 848 L 529 857 L 529 859 L 528 861 L 528 892 L 528 894 L 529 896 L 528 898 L 530 897 L 529 901 L 532 905 L 532 906 L 534 906 L 534 909 Q 537 908 536 912 L 538 911 L 537 913 L 538 915 Q 539 917 541 915 Q 543 916 541 918 Q 543 923 549 922 L 554 928 L 557 928 Q 556 931 560 930 L 562 930 L 578 939 L 592 943 L 604 949 L 608 949 L 610 951 L 614 951 L 626 957 L 629 957 L 649 968 Q 651 967 650 970 L 652 970 L 652 972 L 654 972 L 663 987 Q 664 1003 656 1011 L 656 1013 Q 653 1012 654 1015 L 647 1021 Q 643 1020 644 1023 L 637 1025 Q 635 1028 634 1026 L 631 1028 L 629 1027 L 627 1028 L 625 1028 L 610 1028 L 609 1027 L 605 1028 L 601 1028 L 598 1027 L 596 1027 L 592 1027 L 587 1023 L 585 1024 L 584 1023 L 583 1023 Q 580 1024 581 1022 Q 580 1019 579 1021 L 578 1019 L 575 1017 L 573 1018 L 571 1016 L 570 1016 Q 565 1014 568 1013 L 565 1012 Q 567 1007 563 1008 L 563 1007 L 560 1005 L 562 1004 L 559 1003 L 560 1001 L 559 999 L 557 999 L 558 997 L 557 997 L 557 996 L 557 992 L 556 994 L 555 992 L 555 990 Q 556 987 552 988 L 553 986 L 551 985 L 549 983 L 548 983 L 546 979 L 542 978 L 539 979 L 537 976 L 536 978 L 535 977 Q 530 976 529 979 L 528 977 L 526 978 Q 523 977 524 981 L 522 981 L 522 983 L 520 983 L 521 986 L 520 985 L 519 987 Q 522 988 518 990 L 519 992 L 517 992 L 517 1002 L 519 1004 L 518 1006 L 519 1009 L 521 1009 L 520 1011 L 523 1012 L 522 1014 L 525 1014 L 526 1017 L 525 1019 L 527 1018 L 526 1020 L 527 1022 L 530 1023 L 529 1025 Q 528 1027 531 1026 L 531 1029 L 533 1028 L 534 1033 L 536 1032 L 535 1034 Q 536 1036 538 1034 L 539 1037 Q 542 1036 541 1039 L 545 1040 L 545 1042 L 547 1041 L 548 1044 L 550 1043 L 549 1045 L 555 1047 Q 556 1045 557 1048 L 557 1049 L 561 1049 L 561 1051 L 571 1054 L 573 1054 L 580 1057 L 582 1056 L 588 1058 L 590 1057 L 593 1059 L 596 1058 L 605 1061 L 621 1061 L 625 1059 L 625 1061 Q 627 1062 626 1059 L 629 1059 L 633 1059 L 636 1057 L 638 1057 L 638 1059 Q 640 1060 639 1058 L 641 1058 L 644 1057 L 646 1057 L 651 1055 L 651 1057 Q 653 1058 652 1056 L 654 1056 L 657 1055 L 659 1055 Q 658 1052 661 1053 L 662 1054 Q 661 1051 665 1052 Q 666 1054 667 1052 Q 666 1049 669 1050 L 671 1050 Q 670 1046 673 1047 L 675 1047 Q 674 1044 678 1045 L 677 1044 Q 678 1041 680 1043 L 680 1041 L 682 1041 Q 681 1038 684 1039 L 684 1037 L 686 1037 Q 685 1034 688 1035 L 687 1034 L 689 1033 L 690 1029 L 692 1029 L 692 1028 Q 690 1026 693 1025 Q 691 1019 696 1020 L 696 1019 Q 693 1020 694 1018 L 696 1018 Q 698 1017 696 1016 L 698 1015 L 697 1013 L 701 1007 L 700 1005 L 702 1001 L 702 999 L 701 997 L 702 995 Q 700 993 701 989 L 701 987 L 702 984 L 702 982 Q 703 979 700 980 L 701 977 L 700 977 L 699 975 L 699 973 L 697 972 L 696 967 Q 697 964 694 965 L 694 963 L 693 963 L 693 962 L 691 958 L 690 958 L 688 953 L 684 953 L 686 952 L 686 951 Q 683 952 684 949 L 681 949 Q 678 948 680 947 L 675 944 L 670 938 L 667 938 Q 668 935 666 936 L 664 937 Q 665 934 661 935 L 660 932 L 658 933 L 656 930 L 640 924 L 638 925 Q 636 921 635 924 Q 632 925 633 923 L 632 923 L 627 921 Q 624 922 625 919 L 610 915 L 608 915 L 607 913 Q 601 914 599 911 L 599 913 L 597 911 L 596 911 L 596 910 L 585 905 L 580 901 L 576 901 L 578 900 L 576 898 L 573 896 Q 570 895 572 894 L 571 893 Q 568 892 570 891 L 567 888 L 568 887 L 567 886 L 567 885 L 568 885 L 568 871 L 566 871 L 567 869 L 567 867 L 569 864 L 568 862 L 569 859 L 570 861 L 575 851 L 577 851 L 579 847 L 581 848 L 581 847 L 591 841 L 602 838 L 620 838 Q 621 841 628 839 L 630 841 Q 634 840 633 843 Q 642 845 649 852 L 652 857 Q 651 859 654 858 L 654 861 L 666 881 L 667 885 L 673 887 L 672 889 L 677 890 L 679 889 L 679 891 L 687 891 L 687 889 L 691 890 L 689 888 L 692 887 L 693 889 Q 695 888 693 887 L 696 885 Q 698 886 697 883 L 695 883 L 698 882 L 697 881 Q 696 878 699 879 L 698 878 L 700 877 L 699 876 L 699 875 L 698 872 L 698 870 L 700 870 L 700 869 Q 696 867 699 866 L 698 863 L 695 862 L 696 860 L 697 862 L 697 860 L 695 858 L 695 857 L 691 852 L 693 852 L 694 852 L 691 850 L 692 848 L 691 848 L 691 847 Q 688 846 688 842 L 687 842 L 682 836 Q 683 833 680 834 L 679 831 Q 676 832 677 830 L 676 830 L 674 826 L 673 828 L 672 827 Q 674 825 672 824 L 671 826 L 670 826 Q 671 823 669 824 L 669 822 Q 666 823 667 821 L 665 821 Q 666 817 664 818 L 664 820 L 657 814 Q 654 815 655 812 L 651 812 L 651 811 L 650 811 L 647 810 L 643 810 L 641 808 L 638 809 L 636 808 L 632 809 L 630 809 L 626 807 L 601 807 Z M 980 870 L 980 872 L 979 871 L 977 872 L 975 871 L 969 874 L 968 873 L 966 874 L 965 873 L 964 875 L 961 874 L 959 876 Q 960 878 957 877 L 957 879 L 954 881 L 952 880 L 951 883 L 949 882 L 947 885 L 945 885 Q 946 887 943 886 L 929 902 L 922 917 L 917 924 L 914 937 L 914 953 L 913 954 L 914 997 L 914 999 L 915 1002 L 915 1004 L 918 1012 L 920 1011 L 920 1014 L 920 1016 L 922 1016 L 921 1018 L 923 1021 L 924 1019 L 925 1024 L 925 1026 L 929 1031 L 930 1029 L 930 1032 L 934 1036 L 933 1037 L 936 1038 Q 938 1039 936 1041 L 939 1041 L 938 1043 L 940 1043 L 942 1043 L 943 1046 L 945 1045 L 945 1048 L 947 1047 L 947 1049 L 949 1048 L 948 1050 Q 949 1052 951 1050 L 962 1057 L 965 1056 Q 966 1059 968 1057 L 973 1058 Q 974 1061 976 1059 L 976 1061 L 979 1060 L 981 1061 L 985 1061 Q 987 1060 986 1063 Q 989 1064 988 1062 L 991 1063 L 993 1062 L 997 1063 L 999 1063 L 1001 1062 L 1003 1063 L 1004 1061 L 1007 1063 L 1006 1062 L 1009 1061 L 1011 1062 L 1011 1060 L 1014 1061 L 1013 1060 L 1015 1060 L 1018 1059 L 1020 1059 Q 1025 1061 1024 1058 L 1026 1058 L 1030 1055 L 1033 1056 L 1034 1054 L 1036 1055 L 1035 1054 L 1037 1053 L 1039 1053 L 1043 1051 L 1042 1050 L 1044 1050 L 1044 1049 L 1046 1049 L 1048 1046 L 1052 1042 L 1053 1043 Q 1055 1042 1053 1041 L 1055 1041 L 1056 1039 L 1056 1037 L 1060 1035 L 1059 1034 L 1061 1034 L 1061 1033 L 1061 1031 L 1063 1031 Q 1065 1030 1063 1029 L 1065 1028 L 1065 1026 Q 1064 1023 1067 1024 L 1066 1022 L 1068 1018 L 1070 1018 L 1070 1016 L 1070 1014 L 1071 1012 L 1072 1014 L 1074 1010 L 1072 1009 L 1075 1003 L 1075 1001 Q 1077 1002 1076 1000 L 1074 1000 L 1075 998 L 1075 994 L 1078 983 L 1078 953 L 1077 952 L 1078 947 L 1078 938 L 1076 937 L 1077 933 L 1076 927 L 1075 927 L 1076 925 L 1072 920 L 1074 919 L 1070 915 L 1070 913 L 1070 911 L 1069 909 L 1067 909 L 1068 907 L 1066 907 L 1067 905 L 1066 905 L 1065 904 L 1065 902 Q 1066 899 1063 900 L 1063 897 L 1060 897 L 1060 895 L 1057 894 L 1059 894 Q 1060 891 1057 892 L 1053 889 L 1054 888 L 1050 884 L 1049 886 L 1048 883 L 1046 884 L 1043 881 L 1042 882 L 1042 881 L 1041 880 L 1039 880 L 1039 879 L 1034 875 L 1032 876 L 1027 872 L 1026 874 L 1022 872 L 1020 872 L 1018 871 L 1016 872 L 1016 871 L 1014 870 L 1014 872 L 1012 872 L 1009 870 L 1006 871 L 993 871 L 992 870 L 986 871 L 983 872 L 981 872 L 983 871 L 980 870 Z M 1121 870 Q 1119 873 1118 871 L 1112 875 L 1113 877 L 1111 877 L 1112 879 Q 1113 881 1111 880 L 1111 882 L 1110 885 L 1110 901 L 1111 902 L 1111 917 L 1110 918 L 1110 962 L 1111 963 L 1111 988 L 1110 989 L 1110 999 L 1111 1000 L 1111 1022 L 1110 1023 L 1110 1032 L 1111 1033 L 1111 1075 L 1110 1076 L 1111 1081 Q 1112 1087 1109 1089 L 1109 1099 L 1110 1100 L 1110 1114 L 1109 1115 L 1110 1119 L 1111 1117 L 1111 1119 L 1110 1122 L 1112 1124 L 1111 1127 L 1114 1126 L 1115 1129 L 1114 1128 L 1113 1130 L 1117 1129 L 1118 1132 L 1120 1131 L 1121 1131 L 1122 1133 L 1135 1133 Q 1136 1129 1138 1132 L 1145 1126 L 1147 1127 L 1147 1125 L 1149 1121 L 1147 1120 L 1149 1119 L 1148 1118 L 1150 1112 L 1150 1080 L 1149 1079 L 1150 1075 L 1149 1070 L 1150 1068 L 1151 1070 L 1151 1066 L 1149 1066 L 1150 1063 L 1150 1061 L 1152 1060 L 1152 1057 L 1151 1059 L 1150 1058 L 1153 1056 L 1152 1055 L 1153 1051 Q 1157 1049 1156 1053 L 1158 1053 Q 1157 1055 1161 1054 L 1163 1054 L 1170 1056 L 1172 1056 L 1183 1059 L 1188 1059 L 1192 1061 L 1205 1061 L 1207 1059 L 1212 1060 L 1211 1059 L 1213 1059 L 1216 1057 L 1218 1058 L 1220 1057 Q 1221 1060 1223 1056 L 1225 1057 L 1227 1057 L 1231 1055 L 1235 1050 L 1237 1051 L 1239 1047 L 1240 1049 L 1240 1047 L 1242 1047 L 1240 1046 L 1242 1045 Q 1243 1042 1245 1044 Q 1244 1041 1247 1042 L 1247 1040 L 1253 1035 L 1252 1033 L 1257 1030 L 1256 1029 L 1256 1028 Q 1258 1029 1257 1026 L 1259 1026 L 1258 1024 L 1262 1019 Q 1261 1015 1264 1016 L 1263 1013 L 1265 1008 L 1264 1008 L 1264 1007 Q 1263 1004 1266 1005 L 1265 996 L 1265 994 L 1266 991 L 1267 994 L 1267 987 L 1265 987 L 1266 982 L 1266 968 L 1265 966 L 1267 966 L 1267 955 L 1266 960 L 1265 960 L 1266 955 L 1265 953 L 1266 948 Q 1268 939 1264 937 L 1264 935 L 1265 933 L 1265 931 L 1263 926 L 1264 923 L 1263 921 Q 1266 919 1262 918 L 1263 916 L 1261 915 L 1260 913 L 1261 911 L 1260 911 L 1260 910 L 1258 909 L 1259 907 L 1258 907 L 1257 904 L 1255 904 L 1256 902 L 1251 898 L 1252 896 Q 1250 891 1249 894 L 1244 890 L 1245 888 Q 1242 889 1243 887 L 1242 887 Q 1239 886 1241 885 Q 1240 882 1239 884 L 1236 880 L 1233 878 L 1231 878 L 1229 877 L 1229 875 L 1227 876 L 1221 872 L 1220 874 L 1215 872 L 1212 871 L 1210 872 L 1210 871 L 1207 870 Q 1205 874 1203 870 L 1187 870 L 1184 871 L 1181 872 L 1178 872 L 1181 871 L 1177 870 L 1177 872 L 1176 872 L 1174 872 L 1172 871 L 1166 873 L 1163 872 L 1159 875 Q 1157 877 1156 874 L 1155 877 L 1154 877 L 1154 875 L 1147 875 L 1147 878 L 1146 877 L 1145 877 Q 1142 876 1144 875 L 1143 874 L 1141 874 Q 1137 875 1138 873 Q 1136 874 1135 871 L 1134 872 L 1132 870 L 1131 872 L 1129 870 L 1128 871 L 1123 870 L 1121 870 Z M 879 1054 L 878 1057 L 879 1057 L 879 1054 Z " /><path fill="rgb(0,0,0)" stroke="rgb(0,0,0)" stroke-width="1" opacity="0" d="M 1095.5 229 L 1096 236.5 L 1095 236.5 L 1095.5 229 Z " /><path fill="rgb(0,0,0)" stroke="rgb(0,0,0)" stroke-width="1" opacity="0" d="M 915.5 262 L 918 262.5 L 915.5 263 L 915.5 262 Z " /><path fill="rgb(0,0,0)" stroke="rgb(0,0,0)" stroke-width="1" opacity="0" d="M 759.5 263 L 775 263.5 L 759.5 264 L 759.5 263 Z " /><path fill="rgb(0,0,0)" stroke="rgb(0,0,0)" stroke-width="1" opacity="0" d="M 799.5 263 L 857 263.5 L 799.5 264 L 799.5 263 Z " /><path fill="rgb(0,0,0)" stroke="rgb(0,0,0)" stroke-width="1" opacity="0" d="M 1074.5 263 L 1079 263.5 L 1074.5 264 L 1074.5 263 Z " /><path fill="rgb(0,0,0)" stroke="rgb(0,0,0)" stroke-width="1" opacity="0" d="M 705.5 264 L 708 264.5 L 705.5 265 L 705.5 264 Z " /><path fill="rgb(0,0,0)" stroke="rgb(0,0,0)" stroke-width="1" opacity="0" d="M 1101.5 331 L 1102 333.5 L 1101 333.5 L 1101.5 331 Z " /><path fill="rgb(0,0,0)" stroke="rgb(0,0,0)" stroke-width="1" opacity="0" d="M 750.5 461 L 880.5 461 L 884 463.5 L 886 468.5 L 886 536.5 L 885 537.5 L 884 549.5 L 881.5 552 L 880 552 L 879.5 554 L 790.5 554 L 789.5 553 L 762.5 553 L 761.5 552 L 752.5 552 L 750.5 552 L 745 550.5 L 746 548.5 L 744 548.5 L 745 545.5 L 743 545.5 L 744 542.5 L 742 540.5 L 744 536.5 L 744 493.5 L 742 489.5 L 744 485.5 L 744 483.5 L 743 481.5 L 744 478.5 L 745 475.5 L 744 473 Q 747 474.3 746 470.5 L 745 470.5 L 744.5 472 L 744 468.5 Q 747.6 466.6 747 462 L 750.5 461 Z " /><path fill="rgb(0,0,0)" stroke="rgb(0,0,0)" stroke-width="1" opacity="0" d="M 742.5 494 L 743 500.5 L 742 500.5 L 742.5 494 Z " /><path fill="rgb(0,0,0)" stroke="rgb(0,0,0)" stroke-width="1" opacity="0" d="M 941.5 498 L 942 509.5 L 941 509.5 L 941.5 498 Z " /><path fill="rgb(0,0,0)" stroke="rgb(0,0,0)" stroke-width="1" opacity="0" d="M 1095.5 519 L 1096 522.5 L 1095 522.5 L 1095.5 519 Z " /><path fill="rgb(0,0,0)" stroke="rgb(0,0,0)" stroke-width="1" opacity="0" d="M 742.5 533 L 743 535.5 L 742 535.5 L 742.5 533 Z " /><path fill="rgb(0,0,0)" stroke="rgb(0,0,0)" stroke-width="1" opacity="0" d="M 1095.5 546 L 1096 550.5 L 1095 550.5 L 1095.5 546 Z " /><path fill="rgb(0,0,0)" stroke="rgb(0,0,0)" stroke-width="1" opacity="0" d="M 815.5 871 L 818 871.5 L 815.5 872 L 815.5 871 Z " /><path fill="rgb(0,0,0)" stroke="rgb(0,0,0)" stroke-width="1" opacity="0" d="M 566.5 875 L 567 879.5 L 566 879.5 L 566.5 875 Z " /><path fill="rgb(0,0,0)" stroke="rgb(0,0,0)" stroke-width="1" opacity="0" d="M 1148.5 876 L 1153 876.5 L 1149.5 878 L 1148.5 876 Z " /><path fill="rgb(0,0,0)" stroke="rgb(0,0,0)" stroke-width="1" opacity="0" d="M 685.5 888 L 684.5 890 L 680 889.5 L 685.5 888 Z " /><path fill="rgb(0,0,0)" stroke="rgb(0,0,0)" stroke-width="1" opacity="0" d="M 990.5 899 L 1005.5 899 L 1007.5 901 L 1011.5 901 L 1015.5 903 L 1026 910 L 1032 920 Q 1035 918.8 1034 922.5 Q 1036.8 923.6 1036 927 Q 1039.5 925.9 1038 933.5 L 1040 935.5 L 1042 950.5 L 1044 952.5 L 1044 976.5 Q 1041 979.5 1042 986.5 L 1040 988.5 L 1040 996.5 L 1038 1003.5 L 1025.5 1019 L 1017.5 1026 L 1012.5 1028 L 1010.5 1027 L 1010.5 1029 L 1008.5 1029 L 1005.5 1028 L 1003.5 1028 L 995.5 1028 L 994.5 1029 L 991.5 1028 L 989.5 1029 L 989.5 1027 L 987 1027.5 L 987.5 1029 L 984.5 1027 L 982.5 1027 L 976.5 1025 L 975 1025.5 Q 975.8 1023.3 973.5 1024 L 970 1022.5 L 972 1021.5 Q 967.3 1021.7 966 1018.5 Q 966.7 1015.9 964 1017 L 964 1014 L 961.5 1014 L 962 1012.5 Q 962.8 1009.9 959.5 1011 L 958 1008.5 L 958 1006.5 L 957.5 1005 L 956 1005.5 L 956.5 1004 L 954 1002.5 Q 956.5 1001 953 999.5 L 952 996.5 L 953 991.5 L 951 987.5 L 952 983.5 L 950 975.5 L 951 973.5 L 950 968.5 L 951 967.5 L 951 955.5 L 950 950.5 L 951 947.5 L 951 945.5 L 952 941.5 L 951 939.5 L 951 937.5 L 952 932 Q 954.7 933.1 954 930.5 Q 951.8 929.3 954.5 928 Q 956.8 928.8 956 926.5 L 964 911 L 982.5 901 L 990.5 899 Z " /><path fill="rgb(0,0,0)" stroke="rgb(0,0,0)" stroke-width="1" opacity="0" d="M 1176.5 900 L 1198.5 901 L 1208 906 Q 1206.9 908.7 1209.5 908 L 1214 911.5 L 1225 926.5 L 1226 937.5 L 1227 938.5 L 1227 947.5 L 1228 948.5 L 1229 970.5 L 1228 971.5 L 1227 993.5 L 1225 1001.5 L 1225 1003.5 Q 1220.5 1014.5 1211.5 1021 L 1202.5 1027 L 1201 1026.5 Q 1201.8 1029.1 1198.5 1028 L 1196.5 1027 L 1194.5 1027 L 1190.5 1027 Q 1191.5 1030 1186.5 1029 Q 1185.5 1026 1180.5 1027 L 1178.5 1028 L 1173.5 1027 L 1171.5 1026 L 1170.5 1027 L 1168 1025.5 L 1167.5 1027 L 1163.5 1023 Q 1155.2 1021.3 1151 1015.5 L 1149 1011.5 L 1150 1009.5 L 1148 1005.5 L 1149 1002.5 L 1147 1002 L 1148 999.5 L 1147 997.5 L 1147 995.5 L 1148 988.5 L 1147 987.5 L 1147 948.5 L 1148 945.5 L 1147 941.5 L 1148 938.5 L 1147 935.5 L 1149 930.5 L 1148 927.5 Q 1147.3 925.3 1149.5 926 L 1149 924.5 L 1153.5 916 Q 1155.8 916.8 1155 914.5 L 1168.5 903 L 1176.5 900 Z " /><path fill="rgb(0,0,0)" stroke="rgb(0,0,0)" stroke-width="1" opacity="0" d="M 1076.5 939 L 1077 942.5 L 1076 942.5 L 1076.5 939 Z " /><path fill="rgb(0,0,0)" stroke="rgb(0,0,0)" stroke-width="1" opacity="0" d="M 763.5 1037 L 764 1042.5 L 763 1042.5 L 763.5 1037 Z " /><path fill="rgb(0,0,0)" stroke="rgb(0,0,0)" stroke-width="1" opacity="0" d="M 840.5 1041 L 841 1044.5 L 840 1044.5 L 840.5 1041 Z " /><path fill="rgb(0,0,0)" stroke="rgb(0,0,0)" stroke-width="1" opacity="0" d="M 857.5 1060 L 858.5 1062 Q 855.7 1062.7 857.5 1060 Z " /><path fill="rgb(0,0,0)" stroke="rgb(0,0,0)" stroke-width="1" opacity="0" d="M 867.5 1060 L 868.5 1062 L 867.5 1060 Z " /><path fill="rgb(0,0,0)" stroke="rgb(0,0,0)" stroke-width="1" opacity="0" d="M 1110.5 1089 L 1111 1091.5 L 1110 1091.5 L 1110.5 1089 Z " /><path fill="rgb(162,162,162)" stroke="rgb(162,162,162)" stroke-width="1" opacity="0.8666666666666667" d="M 691.5 205 L 694.5 206 L 697.5 205 Q 698.7 207.2 703.5 206 Q 704.7 203.7 709.5 205 Q 711 207.5 716.5 206 L 717.5 205 L 728.5 205 L 729.5 206 L 1056.5 206 L 1057.5 205 L 1066.5 205 L 1067.5 206 L 1075.5 206 L 1078.5 205 L 1083.5 206 L 1085.5 205 L 1089.5 207 L 1091 206.5 Q 1089.9 209.8 1092.5 209 L 1092.5 207 L 1095.5 212 Q 1098.5 211.2 1097 215 L 1095 215 L 1095 221 L 1097 221.5 L 1097 237.5 L 1094 243.5 L 1096 244 L 1094.5 249 L 1093 248.5 Q 1092.3 251.1 1095 250 L 1095 252 L 1092.5 251 L 1092 253 Q 1095 252 1094 255 L 1090 256.5 L 1091.5 257 L 1093 256.5 L 1091.5 259 L 1089 257.5 L 1090 259.5 L 1088.5 259 L 1086 260.5 L 1086.5 262 L 1088 261.5 L 1086.5 264 L 1084.5 261 L 1084 262.5 Q 1086.3 263.8 1083.5 265 L 1073.5 265 Q 1071.8 262.2 1066.5 263 L 1064.5 264 Q 1062.5 260 1060.5 264 L 1055.5 263 L 1054.5 264 L 1048 264 Q 1049.3 260.7 1044.5 262 L 1041.5 263 L 1037.5 262 L 1032.5 263 L 1024.5 261 L 1021.5 262 L 1016.5 261 Q 1015.3 263.3 1010.5 262 L 1009.5 261 L 1000.5 261 L 999.5 262 L 975.5 262 L 974.5 261 L 965.5 261 L 960.5 262 L 955.5 261 L 951.5 262 L 949.5 261 L 948.5 262 L 934.5 263 Q 933.3 260.7 928.5 262 L 925.5 263 L 920 262 L 919.5 264 L 910.5 264 Q 909.2 261.7 904.5 263 L 900.5 264 L 898.5 263 L 894.5 264 L 889.5 263 L 884.5 264 L 880.5 263 L 879.5 264 L 858.5 264 L 857.5 265 L 749 265 Q 750.4 261 743.5 263 L 742.5 264 L 716.5 265 L 711.5 264 Q 709.8 266.8 704.5 266 L 702.5 266 Q 695.5 267.5 696 264.5 Q 698.3 263.3 695.5 262 L 693 262 Q 694.3 259 690.5 260 L 689 260.5 L 690 258.5 L 687 257.5 L 688 256.5 Q 684.9 254.8 686.5 253 Q 684.3 253.8 685 251.5 L 685 249.5 L 684 246.5 L 684 215.5 L 686 215.5 L 685 213.5 L 685.5 211 L 687 210.5 L 686 208.5 L 691.5 205 Z M 1096 229 L 1095 237 L 1096 237 L 1096 229 Z M 916 262 L 916 263 L 918 263 L 916 262 Z M 699 263 L 697 265 L 699 265 L 701 265 L 703 265 L 699 263 Z M 760 263 L 760 264 L 775 264 L 760 263 Z M 800 263 L 800 264 L 857 264 L 800 263 Z M 1075 263 L 1075 264 L 1079 264 L 1075 263 Z M 706 264 L 706 265 L 708 265 L 706 264 Z " /><path fill="rgb(162,162,162)" stroke="rgb(162,162,162)" stroke-width="1" opacity="0.8666666666666667" d="M 692.5 263 L 695 264.5 L 693.5 265 L 692.5 263 Z " /><path fill="rgb(162,162,162)" stroke="rgb(162,162,162)" stroke-width="1" opacity="0.8666666666666667" d="M 691.5 276 L 698 276.5 L 697.5 278 L 699.5 277 L 701.5 278 L 707 277 Q 705.9 279.7 708.5 279 L 710.5 279 L 712.5 278 L 714.5 279 L 716.5 278 L 719.5 279 L 720.5 278 L 729.5 278 L 730.5 279 L 845.5 279 L 846.5 278 L 939.5 278 L 940.5 279 L 1057.5 279 L 1062.5 278 L 1066.5 279 L 1068.5 278 L 1071.5 279 L 1073.5 278 L 1075.5 279 L 1077.5 278 L 1079.5 279 L 1079.5 277 L 1087.5 277 L 1088 278.5 L 1090 279.5 L 1090.5 278 L 1091.5 280 L 1092.5 278 L 1096 280.5 L 1095 281.5 L 1096.5 284 L 1095 283.5 L 1096.5 286 L 1098 285.5 Q 1098.7 288.1 1096 287 L 1096 289 Q 1098.7 287.9 1098 290.5 L 1099 296 Q 1096 294.8 1097 298.5 L 1098 301.5 L 1097 304 Q 1100 302.8 1099 306.5 L 1098 308.5 L 1099 311.5 L 1098 313.5 L 1100 317.5 L 1099 319.5 L 1101 320 L 1100 323.5 L 1102 328.5 L 1101.5 330 Q 1104.1 329.2 1103 332.5 L 1103.5 335 L 1105 335.5 L 1105 337.5 L 1106 339.5 L 1105.5 341 L 1107 341.5 L 1107 343.5 L 1108 349.5 L 1107.5 351 Q 1110.1 350.2 1109 353.5 L 1107 353.5 L 1108 355.5 L 1107.5 357 L 1109 357.5 L 1108 360.5 L 1109 362.5 L 1108.5 364 Q 1110.8 363.3 1110 365.5 L 1109 367.5 L 1111 371 Q 1108.3 369.9 1109 372.5 L 1111 372.5 L 1110.5 374 Q 1113.5 373.1 1112 377.5 L 1114 381.5 L 1115 384.5 L 1114 385.5 L 1116.5 389 L 1115 389.5 L 1117 390 L 1118 393.5 L 1117 396.5 L 1119 398.5 L 1118.5 400 L 1117.5 398 L 1117 400.5 Q 1119.6 401.9 1119 406.5 L 1118 411.5 L 1119 412.5 L 1119 430.5 L 1118 431.5 L 1118 439.5 L 1119 443.5 L 1118 445.5 L 1119 449 Q 1116.3 447.9 1117 450.5 L 1118 452.5 L 1118 454.5 L 1116.5 457 L 1115 457.5 L 1116 459.5 L 1107.5 464 L 1106 463.5 Q 1106.8 465.8 1104.5 465 Q 1103 462.5 1101.5 466 L 1099 464.5 L 1100 468 L 1098 468.5 L 1099 471.5 L 1096 475.5 L 1097 478.5 L 1098 486 Q 1095 484.8 1096 488.5 L 1097 490.5 L 1095 494.5 Q 1098 495.5 1097 500.5 Q 1094.3 505.1 1095 512 L 1097 512.5 L 1097 556 Q 1094.3 554.9 1095 557.5 L 1097 569 Q 1094 567.8 1095 571.5 L 1095 573.5 L 1095.5 576 L 1096.5 574 L 1097 577.5 L 1096 582.5 Q 1099.8 584.3 1098 591.5 L 1097 591.5 L 1096.5 589 L 1096 592.5 L 1096.5 594 L 1095 594.5 L 1097 595.5 L 1095 596 L 1095 598 Q 1097.7 596.9 1097 599.5 L 1094 601 L 1094.5 603 L 1096 602.5 L 1092 604.5 L 1091 607.5 L 1093 606.5 L 1093.5 605 L 1094 606.5 L 1090.5 611 L 1089 610.5 Q 1092.8 608.7 1089.5 607 L 1088 611 Q 1084.2 610 1083 612.5 Q 1084.1 615.8 1081.5 615 L 1080.5 612 L 1080 615 L 1077 614.5 L 1077.5 613 L 1067 613.5 L 1069 614.5 L 1060.5 615 L 1060.5 614 L 1063 613.5 L 1059.5 613 L 1057 614 L 1056.5 612 L 1053 613.5 L 1056 614.5 L 1052 615 L 1051.5 613 L 1049.5 614 L 1047 613 L 1046.5 611 Q 1044.8 614.8 1043 611.5 L 1042.5 609 L 1041.5 611 L 1040.5 609 L 1042 608.5 L 1038 606.5 L 1040 605.5 L 1039 602 Q 1035.7 603.3 1037 598.5 Q 1039.3 597.3 1038 592.5 L 1037 591.5 L 1037 582.5 L 1038 581.5 L 1038 471.5 L 1034.5 462 L 1032.5 461 L 947.5 461 L 945 462 L 943 465.5 L 944 469 L 942 469.5 L 942 471.5 L 943 473.5 L 942 476.5 L 943 480.5 L 941 480.5 L 942 485.5 L 941 490 L 943 490.5 L 943 524 L 941 524.5 L 941 552.5 L 942 553.5 L 942 566.5 L 941 568.5 L 943 568.5 L 942 583.5 Q 944.3 584.8 943 589.5 L 942 590.5 L 941 603.5 L 939 606.5 L 942 607.5 L 939 608 L 940 610.5 Q 938.3 613.8 936.5 610 L 935 610.5 L 936 612.5 L 935 612.5 Q 935.8 610.3 933.5 611 L 934 612.5 L 933.5 614 L 929.5 612 L 927 613 Q 928.3 610 924.5 611 L 924.5 612 L 926 612.5 L 921 613 Q 922.1 610.3 919.5 611 L 915.5 612 Q 914 608.5 912.5 611 L 905.5 610 L 903.5 610 L 900.5 611 L 897.5 610 L 894 611 Q 895.1 608.3 892.5 609 Q 889.2 611.7 882.5 611 L 882.5 609 L 869.5 610 L 868.5 609 L 847.5 609 L 844.5 608 L 842.5 609 L 838.5 608 L 834.5 609 Q 833.2 606.7 828.5 608 Q 826.7 610.8 820.5 609 L 819.5 608 L 806.5 608 L 805.5 609 L 792.5 609 L 791.5 608 L 775.5 608 L 771.5 609 Q 770.2 606.7 765.5 608 L 761.5 609 L 758.5 608 L 755.5 609 L 753.5 609 Q 741.4 607.4 733.5 610 L 730 609 Q 731.3 612.3 726.5 611 L 722.5 609 L 719.5 611 L 716.5 610 L 714.5 610 L 712.5 611 L 710.5 611 L 702.5 612 L 699 611 Q 700.3 614.3 695.5 613 L 695.5 611 L 693.5 610 L 692.5 612 L 692 609 L 690 609.5 L 690.5 611 L 688 607 L 685 605.5 L 684 602.5 Q 686.5 601 683 599.5 Q 681.4 588.9 685 583.5 L 684 582.5 L 684 572.5 L 685 571.5 L 685 469.5 L 683 463 L 671.5 461 L 670.5 462 Q 668.8 458.9 667 460.5 Q 669.8 458.8 665.5 457 L 664 457.5 L 663 455.5 L 665 454.5 L 663 453.5 L 663 449.5 L 664 447.5 L 662 447 L 663 437.5 L 662 436.5 L 662 425.5 L 663 424.5 Q 661.6 415.6 664 410.5 L 664 408.5 L 663 404.5 L 663 402.5 L 664 399.5 L 663 396 L 665 395.5 L 665 393.5 L 664 390 L 666 389.5 L 665 386.5 L 667 384.5 Q 666.2 377.7 670 375.5 L 669.5 374 Q 671.8 374.8 671 372.5 L 671 370.5 L 673 366.5 L 671 366.5 L 673 362.5 L 673 360.5 L 674 358.5 L 674 356.5 L 673 353.5 L 674 351.5 L 673 349 Q 675.7 350.1 675 347.5 L 674 344.5 L 676 337.5 L 675 335.5 Q 678 332.5 677 325.5 L 682 314.5 L 681 312 Q 683.7 313.1 683 310.5 L 683 308.5 L 684 305.5 L 683 300.5 L 685 296.5 L 685 294.5 L 684.5 293 L 683 293.5 Q 682.2 288.2 685 286.5 L 684.5 285 L 686 284.5 L 685 282 L 687 281.5 L 685 280.5 L 689.5 277 L 691.5 278 L 691.5 276 Z M 685 289 L 684 292 L 685 292 L 685 289 Z M 1102 331 L 1101 334 L 1102 334 L 1102 331 Z M 751 461 L 747 462 L 746 467 L 746 469 L 744 469 L 745 472 L 745 471 L 746 471 Q 747 474 744 473 L 745 476 L 744 479 L 743 482 L 744 484 L 744 486 L 742 490 L 744 494 L 744 537 L 742 539 Q 745 540 743 542 L 745 546 L 744 549 L 746 549 L 745 551 L 751 552 L 753 552 L 762 552 L 763 553 L 790 553 L 791 554 L 880 554 L 880 552 L 882 552 L 884 550 L 885 538 L 886 537 L 886 469 L 884 464 L 881 461 L 751 461 Z M 743 494 L 742 501 L 743 501 L 743 494 Z M 942 498 L 941 510 L 942 510 L 942 498 Z M 1096 519 L 1095 523 L 1096 523 L 1096 519 Z M 743 533 L 742 536 L 743 536 L 743 533 Z M 1096 546 L 1095 551 L 1096 551 L 1096 546 Z M 685 588 L 684 599 L 685 599 L 685 588 Z " /><path fill="rgb(162,162,162)" stroke="rgb(162,162,162)" stroke-width="1" opacity="0.8666666666666667" d="M 1086.5 612 L 1088 612.5 L 1084.5 614 L 1084.5 613 L 1086.5 612 Z " /><path fill="rgb(162,162,162)" stroke="rgb(162,162,162)" stroke-width="1" opacity="0.8666666666666667" d="M 736 795 L 739.5 797 L 740 795 L 748.5 795 L 750.5 797 L 751 795 Q 754.8 793.5 754 796.5 L 756.5 797 Q 758.8 796.3 758 798.5 L 759 798.5 L 759.5 797 L 763 802 L 761 802.5 L 763 803 L 763.5 806 L 764.5 804 L 765 805.5 L 763.5 808 L 765 808.5 L 765 810.5 Q 766.7 818.7 764 822.5 L 765 825.5 L 764 827.5 L 765 832.5 L 764 833.5 L 764 851.5 Q 766.3 852.8 765 857.5 L 764 860.5 L 765 863.5 L 764 865.5 L 766 874.5 L 765 876.5 L 767 876.5 L 766 878.5 L 767.5 882 L 769 881.5 L 768.5 880 L 774.5 882 L 774.5 881 L 773 880.5 L 776.5 880 L 782 876.5 L 781.5 875 L 783 875.5 Q 782.2 872.9 785.5 874 L 787 874.5 L 787.5 873 L 788.5 874 L 791 872.5 L 790.5 874 L 794.5 872 L 796.5 873 L 802.5 871 L 804.5 872 L 807.5 871 L 809.5 872 L 809.5 870 L 826.5 870 L 831.5 872 L 833.5 871 Q 834.9 873.6 839.5 873 L 841.5 872 L 846.5 876 L 847.5 874 L 848.5 877 L 850.5 876 L 853 877 Q 851.3 881.5 856.5 880 L 856.5 882 Q 860.3 881.3 861 883.5 L 861.5 886 L 862.5 885 L 866 888.5 L 864 889.5 L 867 890 L 866 892.5 L 869 893.5 Q 866.5 895 870 896.5 L 872 902.5 L 870 903.5 L 872 904 L 872.5 907 L 874 906.5 L 873.5 908 L 875 908.5 L 875 912.5 Q 873.5 916.9 876.5 916 L 876 917.5 L 878 920.5 L 879 923 Q 876.3 921.9 877 924.5 Q 880.5 926 878 927.5 L 880 933.5 L 880 938.5 L 879 939.5 L 879 948.5 L 881 948.5 L 881 1000.5 Q 878 1004.5 879 1012.5 Q 882.4 1020.1 881 1032.5 L 879 1043.5 L 880 1043.5 L 880.5 1041 L 881 1046 L 879 1046.5 L 881 1050.5 L 879 1050.5 L 880 1052.5 L 878 1053.5 L 879 1056.5 L 875 1059 L 874.5 1061 L 874 1059 L 872 1059.5 Q 874.3 1060.8 871.5 1062 L 871.5 1060 Q 868.5 1059.2 870 1063 L 866 1063 L 864.5 1060 L 860 1061 Q 861.2 1064.7 856 1063 Q 857.1 1060.3 854.5 1061 L 852.5 1062 L 848.5 1059 L 846.5 1059 L 844 1057.5 Q 844.8 1055.3 842.5 1056 L 841.5 1054 L 843 1053.5 L 840 1052 L 841 1047 L 839 1046.5 L 839 1035.5 L 840 1034.5 L 840 1004.5 L 841 1003.5 L 841 927.5 Q 838.4 926.1 839 921.5 L 831 910 L 829 910 Q 830.1 907.3 827.5 908 Q 822.5 902 813.5 900 L 802.5 900 L 799.5 901 L 797.5 901 L 793.5 901 L 777 910 L 777 912 L 775 912 L 775 914 L 773 914 Q 774.1 916.7 771.5 916 L 767 921.5 L 767 924 L 765 924.5 L 765 926.5 L 764 930.5 L 765 932.5 L 765 934.5 L 764.5 938 L 763 937.5 L 764 945.5 L 763 948.5 L 764 949.5 L 764 981.5 Q 761.8 982.7 763 987.5 L 764 988.5 L 764 1028.5 L 763 1032.5 L 764 1032.5 L 764.5 1030 L 765 1043.5 L 763 1046.5 L 764 1050 L 762 1050.5 L 763 1052.5 L 761 1052.5 L 758.5 1057 L 757 1056.5 L 756.5 1058 L 754.5 1057 L 754.5 1059 L 752 1057.5 Q 752.9 1060.9 747.5 1059 Q 746.1 1056.4 741.5 1057 Q 740.4 1059.8 737 1059 L 736.5 1057 L 734 1058 L 733.5 1056 L 731.5 1057 Q 726.7 1054.5 728.5 1052 Q 725.2 1053.1 726 1050.5 L 727 1048.5 L 725 1048.5 L 725.5 1046 L 727 1046.5 L 726 1043.5 L 727 1038.5 Q 724.3 1035.2 725 1028.5 L 726 1027.5 L 726 1001.5 L 727 1000.5 L 727 956.5 L 726 955.5 L 726 831.5 L 725 830.5 L 725 809.5 L 727 805.5 Q 724.8 804.3 727.5 803 L 729 802.5 L 727 801.5 L 734.5 796 L 736 796.5 L 736 795 Z M 816 871 L 816 872 L 818 872 L 816 871 Z M 880 991 L 879 1001 L 880 1001 L 880 991 Z M 764 1037 L 763 1043 L 764 1043 L 764 1037 Z M 841 1041 L 840 1045 L 841 1045 L 841 1041 Z M 878 1054 L 876 1056 L 878 1057 L 878 1054 Z M 876 1056 Q 874 1059 877 1058 L 876 1056 Z M 748 1057 L 748 1058 L 751 1058 L 748 1057 Z M 858 1060 Q 856 1063 859 1062 L 858 1060 Z " /><path fill="rgb(162,162,162)" stroke="rgb(162,162,162)" stroke-width="1" opacity="0.8666666666666667" d="M 600.5 807 L 625.5 807 L 629.5 809 L 631.5 809 L 635.5 808 L 637.5 809 L 640.5 808 L 642.5 810 L 646.5 810 L 649.5 811 L 651 810.5 L 651 812 L 655 812 Q 653.9 814.7 656.5 814 L 660.5 817 Q 662 814.5 663.5 818 Q 666.1 817.2 665 820.5 L 667 820.5 Q 666.3 822.8 668.5 822 L 668.5 824 Q 670.8 823.3 670 825.5 L 671 825.5 L 671.5 824 L 675.5 830 L 677 829.5 Q 676.3 831.8 678.5 831 L 679.5 834 Q 682.8 832.9 682 835.5 L 685.5 841 Q 686.8 838.8 688 841.5 L 688 843.5 L 692 848.5 L 691.5 850 L 694 851.5 L 692 852.5 L 693.5 855 L 695 854.5 L 694.5 858 L 697 859.5 L 699 865.5 Q 696.5 867 700 868.5 L 698 872.5 L 699 874.5 L 698.5 876 L 700 876.5 L 698 877.5 L 698.5 879 Q 696.3 878.3 697 880.5 L 699 880.5 L 695 882.5 L 697 883 Q 698.1 885.7 695.5 885 L 693 886.5 Q 695.3 887.8 692.5 889 L 691.5 887 L 690.5 890 L 687 889 L 686.5 891 L 679 891 L 678.5 889 L 676.5 890 L 672 888.5 L 672.5 887 L 670.5 888 L 670.5 886 L 667 884.5 L 666 880.5 L 654 860.5 L 654 858 Q 651.3 859.1 652 856.5 L 648.5 852 Q 642.4 845.4 633 843 Q 634.3 839.7 629.5 841 L 627.5 839 Q 621.3 840.8 619.5 838 L 601.5 838 L 590.5 841 L 581 846.5 L 579.5 849 L 579.5 847 L 577 848.5 L 576.5 851 L 575 850.5 L 569.5 861 L 568.5 859 L 568 861.5 L 569 863.5 L 567 866.5 L 567 868.5 L 568 870.5 L 568 885 L 566 885.5 L 568 886.5 L 567 887.5 L 570 890.5 Q 567.8 891.8 570.5 893 L 572 893.5 Q 569.8 894.8 572.5 896 L 575.5 898 L 578 899.5 L 576 900.5 L 579.5 901 L 584.5 905 Q 592.3 906.3 597 910.5 L 597.5 912 L 599.5 911 Q 601.2 914.5 607 913 L 607.5 915 L 609.5 915 L 625 919 Q 623.9 921.7 626.5 921 L 628 920.5 L 627.5 922 L 629.5 921 L 629.5 923 L 632.5 922 L 633 924 L 635.5 923 L 638.5 925 L 640.5 925 L 656 930 L 657.5 933 L 659.5 932 L 661 935 Q 664.8 933.5 664 936.5 L 665.5 936 Q 668.1 935.3 667 938 L 669.5 938 L 674.5 944 L 680 946.5 Q 677.8 947.8 680.5 949 L 684 949 Q 682.9 951.7 685.5 951 L 685.5 952 L 684 952.5 L 688 953 L 689.5 958 L 691 957.5 L 694 965 Q 696.7 963.9 696 966.5 L 697 972 L 700 973.5 L 699 976.5 L 701 976.5 L 700 980 Q 702.7 978.9 702 981.5 L 702 983.5 L 701 986.5 L 701 988.5 Q 699.7 993.3 702 994.5 L 701 996.5 L 702 998.5 L 702 1000.5 L 700 1004.5 L 701 1006.5 L 697 1012.5 L 698 1015 L 696 1015.5 Q 698.3 1016.8 695.5 1018 L 694 1017.5 Q 693.3 1019.8 695.5 1019 L 695.5 1020 Q 690.9 1018.6 693 1024.5 L 692 1027.5 L 691.5 1029 L 690 1028.5 L 689 1033 L 687 1033.5 L 687.5 1035 Q 684.9 1034.3 686 1037 L 683.5 1037 L 683.5 1039 Q 681.3 1038.3 682 1040.5 L 680 1040.5 Q 680.5 1044.5 677.5 1045 Q 674.2 1043.9 675 1046.5 L 672.5 1047 Q 669.9 1046.2 671 1049.5 L 668.5 1050 Q 666.3 1049.3 667 1051.5 Q 665.7 1054.3 664.5 1052 Q 661.2 1050.9 662 1053.5 L 660 1054.5 L 660.5 1053 Q 658.3 1052.3 659 1054.5 L 656.5 1055 L 653.5 1056 L 652 1055.5 Q 652.8 1057.8 650.5 1057 L 650.5 1055 L 648 1055.5 L 648.5 1057 L 646.5 1057 L 644.5 1056 L 640.5 1058 L 639 1057.5 Q 639.8 1059.8 637.5 1059 L 634.5 1057 L 634.5 1059 L 628.5 1059 L 626 1059 Q 627.1 1061.7 624.5 1061 L 621.5 1060 L 620.5 1061 L 604.5 1061 L 595.5 1058 L 592.5 1059 L 589.5 1057 L 587.5 1058 L 581.5 1056 L 579.5 1057 L 572.5 1054 L 570.5 1054 L 561 1051 L 561 1049 L 557 1049 L 557 1047.5 Q 555.8 1044.8 554.5 1047 L 548 1043.5 L 546.5 1041 L 544.5 1042 L 544.5 1040 L 541 1039 Q 542.3 1036 538.5 1037 Q 533.6 1034.4 532.5 1028 L 531 1028.5 L 531 1026 Q 528.3 1027.1 529 1024.5 L 529.5 1023 L 527 1021.5 L 525 1017.5 L 525 1015.5 Q 525.8 1012.9 522.5 1014 L 522.5 1012 L 520 1010.5 L 518 1005.5 L 519 1003.5 L 517 1001.5 L 517 991.5 L 520 987.5 L 519 985.5 L 520 983 L 522 982.5 L 521.5 981 L 524 981 Q 522.5 977.3 525.5 978 L 528 977 L 528.5 979 L 529.5 976 L 535.5 978 L 536.5 976 L 538.5 979 Q 540 975.5 541.5 978 L 546 979 L 547.5 983 L 549 982.5 L 550.5 985 L 553 985.5 L 552 988 Q 555.8 986.5 555 989.5 L 555 991.5 L 555.5 994 L 556.5 992 L 560 1000.5 L 559 1003 L 562 1003.5 L 560 1004.5 L 563 1006.5 L 562.5 1008 Q 566.7 1006.7 565 1011.5 L 568 1012.5 Q 565.3 1014.3 569.5 1016 L 571 1015.5 L 572.5 1018 L 574.5 1017 L 578 1019 L 578.5 1021 Q 579.8 1018.8 581 1021.5 Q 580.3 1023.8 582.5 1023 L 582.5 1021 L 584.5 1024 L 586.5 1023 L 591.5 1027 L 595.5 1027 L 597.5 1027 L 600.5 1028 L 604.5 1028 L 608.5 1027 L 609.5 1028 L 624.5 1028 L 626.5 1028 L 628.5 1027 L 630.5 1028 L 633.5 1026 Q 635 1028.5 636.5 1025 L 644 1023 Q 642.8 1020 646.5 1021 L 654 1014.5 Q 653.3 1011.9 656 1013 L 656 1010.5 Q 664.3 1003.3 663 986.5 L 654 972 L 652 972 L 652 970 L 650 970 Q 651.1 967.3 648.5 968 L 628.5 957 L 625.5 957 L 613.5 951 L 609.5 951 L 607.5 949 L 603.5 949 L 591.5 943 L 577.5 939 L 561.5 930 L 559.5 930 Q 555.8 931 557 928 L 553.5 928 L 549 922 L 545.5 922 L 538 914.5 L 536 909 Q 532.7 910.1 534 906 L 531.5 906 L 532 904.5 L 529 900.5 Q 531.5 899 528 897.5 L 529 895.5 L 528 893.5 L 528 891.5 L 528 860.5 L 529 858.5 L 529 856.5 L 531 847.5 L 538.5 837 Q 539.8 839.3 541 836.5 L 542.5 833 L 545 831.5 Q 544.3 828.9 547 830 L 547 828 Q 550.8 829.5 550 826.5 L 555.5 820 L 563 817.5 L 561 816.5 Q 563.7 813.3 569 814 Q 567.9 811.3 570.5 812 Q 571.9 809.4 576.5 810 L 578 810.5 Q 577.3 808.3 579.5 809 L 581.5 809 L 583.5 810 L 584 808 L 589.5 809 L 593.5 809 L 596.5 808 L 598.5 808 L 600.5 807 Z M 567 875 L 566 880 L 567 880 L 567 875 Z M 681 889 L 681 890 L 685 890 L 681 889 Z " /><path fill="rgb(162,162,162)" stroke="rgb(162,162,162)" stroke-width="1" opacity="0.8666666666666667" d="M 979.5 870 Q 983.8 869.3 984.5 872 Q 986.2 869.2 991.5 870 L 992.5 871 L 1005.5 871 L 1008.5 870 L 1011.5 872 L 1015.5 870 L 1015.5 872 L 1017.5 871 L 1019.5 872 L 1021.5 872 L 1025.5 874 L 1026.5 872 L 1031.5 876 L 1033.5 875 L 1044.5 883 L 1046.5 882 L 1048.5 886 L 1049.5 884 L 1055 888.5 Q 1052.8 889.7 1055.5 891 L 1057 890.5 L 1056.5 892 Q 1059.8 890.9 1059 893.5 L 1058.5 895 Q 1061.1 894.3 1060 897 L 1063 897 L 1063 900 Q 1065.7 898.9 1065 901.5 L 1065 903.5 L 1065.5 905 L 1067 904.5 L 1070 910.5 L 1070 912.5 L 1070.5 915 L 1072 914.5 L 1071 915.5 L 1073.5 919 L 1072 919.5 L 1076 924.5 L 1076 926.5 L 1077 932.5 L 1076 937 L 1078 937.5 L 1078 946.5 L 1077 951.5 L 1078 952.5 L 1078 982.5 L 1075 993.5 L 1075 997.5 L 1076 1001 L 1074 1001.5 L 1075 1003.5 L 1072 1008.5 L 1074 1009.5 L 1069.5 1018 L 1068 1017.5 L 1067 1020.5 L 1067 1022.5 L 1065 1025.5 L 1064.5 1028 L 1063 1028.5 L 1064 1029.5 L 1061 1032.5 L 1059.5 1035 L 1057 1035.5 Q 1059.5 1037 1056 1038.5 L 1050.5 1045 Q 1049.3 1042.8 1048 1045.5 L 1045.5 1049 L 1044 1048.5 L 1042.5 1051 L 1038.5 1053 L 1036.5 1053 L 1035 1053.5 L 1035.5 1055 L 1033.5 1054 L 1032.5 1056 L 1029.5 1055 L 1025.5 1058 L 1024 1057.5 Q 1024.9 1060.9 1019.5 1059 L 1017.5 1059 L 1015 1059.5 L 1015.5 1061 L 1013.5 1061 L 1010.5 1060 L 1010.5 1062 L 1008.5 1061 L 1005.5 1063 L 1003 1061.5 L 1002.5 1063 L 1000.5 1062 L 998.5 1063 L 996.5 1063 L 992.5 1062 L 990.5 1063 L 988 1061.5 Q 988.7 1064.1 986 1063 Q 987.1 1060.3 984.5 1061 L 980.5 1061 L 978.5 1060 L 976 1061 L 975.5 1059 Q 974 1061.5 972.5 1058 L 968.5 1059 L 968.5 1057 L 966.5 1058 L 962.5 1056 L 961.5 1057 L 958.5 1054 L 950.5 1050 Q 949 1052.5 947.5 1049 L 945 1047.5 L 944.5 1045 L 942.5 1046 L 941.5 1043 L 939.5 1043 L 938 1042.5 L 938.5 1041 L 936 1040.5 Q 938.3 1039.2 935.5 1038 L 932 1035.5 L 933 1034.5 L 930 1031.5 L 929.5 1029 L 928.5 1031 L 925 1025.5 L 925 1023.5 L 923.5 1019 L 922.5 1021 L 921 1017.5 L 921.5 1016 L 920 1015.5 L 920 1013.5 L 919.5 1011 L 918 1011.5 L 915 1003.5 L 915 1001.5 L 914 998.5 L 914 996.5 L 913 953.5 L 914 952.5 L 914 936.5 L 917 923.5 L 922 916.5 L 929 901.5 L 942.5 886 Q 945.8 887.1 945 884.5 L 947 884.5 L 948.5 882 L 950.5 883 L 951.5 880 L 953.5 879 L 955.5 880 L 956.5 877 Q 959.8 878.1 959 875.5 L 960.5 874 L 964 874.5 L 964.5 873 L 965.5 874 L 968 872.5 L 968.5 874 L 974.5 871 L 976.5 872 L 979.5 870 Z M 991 899 L 983 901 L 964 911 L 956 927 Q 957 929 955 928 Q 952 929 954 931 Q 955 933 952 932 L 953 936 L 953 937 L 952 935 L 951 938 L 951 940 L 952 942 L 951 946 L 951 948 L 950 951 L 951 956 L 951 968 L 950 969 L 951 974 L 950 976 L 952 984 L 951 988 L 953 992 L 952 995 L 954 997 L 953 1000 L 956 1003 L 955 1004 L 957 1004 L 958 1007 L 958 1009 L 960 1011 Q 963 1010 962 1013 L 962 1014 L 964 1014 L 964 1017 Q 967 1016 966 1019 Q 967 1021 969 1019 L 968 1021 L 972 1022 L 970 1023 L 974 1024 Q 976 1023 975 1026 L 977 1025 L 983 1027 L 986 1028 L 988 1027 L 992 1028 L 995 1029 L 996 1028 L 1004 1028 L 1007 1029 L 1011 1027 L 1013 1028 L 1018 1026 L 1026 1019 L 1038 1004 L 1040 997 L 1040 989 L 1042 987 Q 1041 980 1044 977 L 1044 953 L 1042 951 L 1040 936 L 1038 934 Q 1040 926 1036 927 Q 1037 924 1034 923 Q 1035 919 1032 920 L 1026 910 L 1016 903 L 1012 901 L 1008 901 L 1006 899 L 991 899 Z M 1077 939 L 1076 943 L 1077 943 L 1077 939 Z " /><path fill="rgb(162,162,162)" stroke="rgb(162,162,162)" stroke-width="1" opacity="0.8666666666666667" d="M 1118.5 870 L 1122.5 870 L 1127.5 871 L 1128.5 870 L 1131 871.5 L 1131.5 870 L 1133.5 872 L 1134.5 871 Q 1136.3 874.1 1138 872.5 Q 1137.2 875.1 1140.5 874 L 1142.5 874 L 1144 874.5 Q 1141.8 875.8 1144.5 877 L 1146 876.5 L 1146.5 878 L 1147 875 L 1153.5 875 L 1154 876.5 L 1155 876.5 L 1155.5 874 L 1158.5 875 L 1160 874.5 L 1159.5 873 L 1165.5 873 L 1171.5 871 L 1173.5 872 L 1175.5 872 L 1177 871.5 L 1176.5 870 Q 1181.5 869 1182.5 872 L 1186.5 870 L 1202.5 870 Q 1204.5 874 1206.5 870 L 1210 870.5 L 1209.5 872 L 1211.5 871 L 1214.5 872 L 1219.5 874 L 1220.5 872 L 1226.5 876 L 1228.5 875 L 1228.5 877 L 1230.5 876 L 1234 878 Q 1232.9 880.7 1235.5 880 L 1237.5 883 L 1238.5 882 L 1243 886.5 Q 1242.3 888.8 1244.5 888 L 1254 898.5 L 1253.5 900 L 1256 901.5 L 1257.5 907 L 1259 906.5 L 1258 908.5 L 1261 910.5 L 1262 912.5 L 1261 915 L 1263 915.5 L 1262 917.5 Q 1265.5 919 1263 920.5 L 1264 922.5 Q 1261.5 924 1265 925.5 L 1264 928.5 L 1265 930.5 L 1265 932.5 L 1264 934.5 L 1264 936.5 Q 1267.6 939.4 1266 947.5 L 1265 952.5 Q 1269 956 1267 965.5 L 1265 965.5 L 1266 967.5 L 1266 981.5 L 1265 986.5 L 1267 986.5 L 1267 993.5 Q 1264.3 994.3 1265 998.5 L 1266 1005 Q 1263.3 1003.9 1264 1006.5 L 1265 1008.5 L 1263 1012.5 L 1263.5 1016 Q 1260.9 1015.2 1262 1018.5 L 1262.5 1020 L 1261 1019.5 L 1260 1021.5 Q 1262.5 1023 1259 1024.5 L 1259 1026 L 1257 1026 Q 1258.1 1028.7 1255.5 1028 L 1255.5 1029 L 1257 1029.5 L 1255 1030.5 Q 1257.3 1031.8 1254.5 1033 L 1254.5 1031 L 1252 1032.5 L 1253 1035 L 1251 1035.5 L 1252 1036.5 L 1248.5 1040 L 1247 1039.5 L 1247 1042 Q 1244.3 1040.9 1245 1043.5 Q 1243.3 1041.9 1241.5 1045 L 1240 1045.5 L 1242 1046.5 L 1240 1047 L 1239.5 1049 L 1238.5 1047 L 1236.5 1051 L 1234.5 1050 L 1230.5 1055 L 1226.5 1057 L 1224.5 1057 L 1222.5 1056 Q 1221 1059.5 1219.5 1057 L 1218 1057.5 L 1218.5 1059 L 1215.5 1057 L 1215.5 1059 L 1213.5 1058 Q 1212.8 1060.8 1208.5 1060 L 1206.5 1059 L 1204.5 1061 L 1191.5 1061 L 1187.5 1059 L 1182.5 1059 L 1171.5 1056 L 1169.5 1056 L 1162.5 1054 L 1160.5 1054 Q 1157.2 1055.1 1158 1052.5 L 1156 1052.5 Q 1156.7 1049.5 1153 1051 L 1152 1054.5 L 1152.5 1056 L 1151 1056.5 L 1152 1060 L 1150 1060.5 L 1150 1062.5 L 1151 1069.5 L 1149 1078.5 L 1150 1079.5 L 1150 1111.5 L 1149 1115.5 L 1149.5 1117 L 1148 1116.5 L 1149 1118.5 L 1147 1119.5 L 1149 1120.5 L 1147 1124.5 Q 1147.5 1128.5 1144.5 1129 L 1142.5 1128 L 1139 1130.5 L 1139.5 1132 L 1136.5 1131 L 1134.5 1133 L 1121.5 1133 L 1121 1131 L 1119.5 1131 L 1117.5 1132 Q 1116.4 1129.3 1113 1130 L 1114 1126.5 L 1112.5 1127 Q 1109.9 1127.8 1111 1124.5 L 1111 1120.5 L 1109 1118.5 L 1110 1099.5 L 1109 1098.5 L 1109 1088.5 Q 1112 1086.5 1111 1080.5 L 1110 1075.5 L 1111 1074.5 L 1111 1032.5 L 1110 1031.5 L 1110 1022.5 L 1111 1021.5 L 1111 999.5 L 1110 998.5 L 1110 988.5 L 1111 987.5 L 1111 962.5 L 1110 961.5 L 1110 917.5 L 1111 916.5 L 1111 901.5 L 1110 900.5 L 1110 884.5 L 1111 881.5 L 1110.5 880 Q 1112.8 880.8 1112 878.5 L 1111 876.5 L 1114.5 872 L 1118.5 870 Z M 1179 871 L 1179 872 L 1181 872 L 1179 871 Z M 1149 876 L 1150 878 L 1153 877 L 1149 876 Z M 1177 900 L 1169 903 L 1155 915 Q 1156 917 1154 916 L 1152 920 Q 1148 921 1151 923 L 1150 922 L 1149 925 L 1150 926 Q 1147 925 1148 928 L 1149 931 L 1147 936 L 1148 939 L 1147 942 L 1148 946 L 1147 949 L 1147 988 L 1148 989 L 1147 996 L 1147 998 L 1148 1000 L 1147 1002 L 1149 1003 L 1148 1006 L 1150 1010 L 1149 1012 L 1151 1016 Q 1155 1021 1164 1023 L 1168 1027 L 1168 1026 L 1171 1027 L 1172 1026 L 1174 1027 L 1179 1028 L 1181 1027 Q 1186 1026 1187 1029 Q 1192 1030 1191 1027 L 1195 1027 L 1197 1027 L 1199 1028 Q 1202 1029 1201 1027 L 1203 1027 L 1212 1021 Q 1220 1014 1225 1004 L 1225 1002 L 1227 994 L 1228 972 L 1229 971 L 1228 949 L 1227 948 L 1227 939 L 1226 938 L 1225 927 L 1214 912 L 1210 908 Q 1207 909 1208 906 L 1199 901 L 1177 900 Z M 1266 955 L 1265 960 L 1266 960 L 1266 955 Z M 1266 991 L 1265 994 L 1266 994 L 1266 991 Z M 1111 1089 L 1110 1092 L 1111 1092 L 1111 1089 Z M 1145 1126 L 1144 1128 L 1146 1127 L 1145 1126 Z " /></svg>
